{"title":"Happy.Feet.Two.2011.DVDrip-4EVER","uid":7057850,"size":1554587085,"categoryP":"video","categoryS":"movies","magnet":"?xt=urn:btih:dfefe0c7406e2ab5ac364ba151f480375092aaba&amp;dn=Happy.Feet.Two.2011.DVDrip-4EVER&amp;tr=udp%3A%2F%2Ftracker.openbittorrent.com%3A80&amp;tr=udp%3A%2F%2Fopen.demonii.com%3A1337&amp;tr=udp%3A%2F%2Ftracker.coppersurfer.tk%3A6969&amp;tr=udp%3A%2F%2Fexodus.desync.com%3A6969","seeders":1,"leechers":0,"uploader":"TvTeam","files":5,"time":1330212715,"description":". \n &lt;a href=&quot;\nhttp://www.torrenting.com&quot; rel=&quot;nofollow&quot; target=&quot;_NEW&quot;&gt;\nhttp://www.torrenting.com&lt;/a&gt;          :     Once &amp; For all ;)\n\n\n               www . Torrenting . Com \n\n(((((((((((((= Enjoy No RAR releases =))))))))))))))))))))\n\n\n...................................NFO:....................................\n\n.[img]http://lookpic.com/O/i2/1986/Pemzr3am.jpeg[/img]\n\nGeneral\n\nComplete name                            : Happy.Feet.Two.2011.DVDrip-4EVER\nFormat                                   : Matroska\nFormat version                           : Version 2\nFile size                                : 1.43 GiB\nDuration                                 : 1h 39mn\nOverall bit rate                         : 2 062 Kbps\nWriting application                      : Lavf51.12.1\nWriting library                          : Lavf51.12.1\niMDB                                     : http://www.imdb.com/title/tt1402488/\n\nVideo\n\nID                                       : 1\nFormat                                   : AVC\nFormat/Info                              : Advanced Video Codec\nFormat profile                           : &lt;a class=&quot;__cf_email__&quot; href=&quot;/cdn-cgi/l/email-protection&quot; data-cfemail=&quot;e6a48795838a8f8883a6aad4c8d6&quot;&gt;[email&amp;#160;protected]&lt;/a&gt;&lt;script cf-hash='f9e31' type=&quot;text/javascript&quot;&gt;\n/* &lt;![CDATA[ */!function(){try{var t=&quot;currentScript&quot;in document?document.currentScript:function(){for(var t=document.getElementsByTagName(&quot;script&quot;),e=t.length;e--;)if(t[e].getAttribute(&quot;cf-hash&quot;))return t[e]}();if(t&amp;&amp;t.previousSibling){var e,r,n,i,c=t.previousSibling,a=c.getAttribute(&quot;data-cfemail&quot;);if(a){for(e=&quot;&quot;,r=parseInt(a.substr(0,2),16),n=2;a.length-n;n+=2)i=parseInt(a.substr(n,2),16)^r,e+=String.fromCharCode(i);e=document.createTextNode(e),c.parentNode.replaceChild(e,c)}}}catch(u){}}();/* ]]&gt; */&lt;/script&gt;\nCodec ID                                 : V_MPEG4/ISO/AVC\nDuration                                 : 1h 39mn\nBit rate                                 : 1 573 Kbps\nWidth                                    : 592 pixels\nHeight                                   : 256 pixels\nDisplay aspect ratio                     : 2.35:1\nFrame rate                               : 23.976 fps\nColor space                              : YUV\nChroma subsampling                       : 4:2:0\nBit depth                                : 8 bits\nScan type                                : Progressive\nBits/(Pixel*Frame)                       : 0.433\nStream size                              : 1.09 GiB (76%)\nDefault                                  : Yes\nForced                                   : No\n\nAudio\n\nID                                       : 2\nFormat                                   : AC-3\nFormat/Info                              : Audio Coding 3\nMode extension                           : CM (complete main)\nCodec ID                                 : A_AC3\nDuration                                 : 1h 39mn\nBit rate mode                            : Constant\nBit rate                                 : 448 Kbps\nChannel(s)                               : 6 channels\nChannel positions                        : Front: L C R, Side: L R, LFE\nSampling rate                            : 48.0 KHz\nBit depth                                : 16 bits\nCompression mode                         : Lossy\nStream size                              : 319 MiB (22%)\nDefault                                  : Yes\nForced                                   : No\n\n[img]http://lookpic.com/O/i2/159/3PWxWpUo.jpeg[/img]","torrent":{"xt":"urn:btih:dfefe0c7406e2ab5ac364ba151f480375092aaba","amp;dn":"Happy.Feet.Two.2011.DVDrip-4EVER","amp;tr":["udp%3A%2F%2Ftracker.openbittorrent.com%3A80","udp%3A%2F%2Fopen.demonii.com%3A1337","udp%3A%2F%2Ftracker.coppersurfer.tk%3A6969","udp%3A%2F%2Fexodus.desync.com%3A6969"],"infoHash":"dfefe0c7406e2ab5ac364ba151f480375092aaba","infoHashBuffer":{"type":"Buffer","data":[223,239,224,199,64,110,42,181,172,54,75,161,81,244,128,55,80,146,170,186]},"announce":[],"urlList":[]}}